<svg width="52" height="54" viewBox="0 0 52 54" fill="none" xmlns="http://www.w3.org/2000/svg">
<path d="M51.8958 27.0123C51.8958 41.4672 40.2786 53.1852 25.9479 53.1852C11.6173 53.1852 0 41.4672 0 27.0123C0 12.5575 11.6173 0.839478 25.9479 0.839478C40.2786 0.839478 51.8958 12.5575 51.8958 27.0123ZM2.59479 27.0123C2.59479 40.0217 13.0503 50.5679 25.9479 50.5679C38.8455 50.5679 49.301 40.0217 49.301 27.0123C49.301 14.0029 38.8455 3.45676 25.9479 3.45676C13.0503 3.45676 2.59479 14.0029 2.59479 27.0123Z" fill="#DCDCDC"/>
<path d="M25.9479 2.14812C25.9479 1.42538 26.5343 0.836006 27.2561 0.87275C31.9557 1.11199 36.5115 2.63668 40.4296 5.29489C44.7104 8.19912 48.0357 12.3246 49.9808 17.1442C51.926 21.9639 52.4026 27.2591 51.3498 32.3533C50.297 37.4475 47.7627 42.1096 44.0704 45.7439C40.3782 49.3783 35.6957 51.82 30.621 52.7572C25.5464 53.6944 20.31 53.0845 15.5806 51.0054C10.8513 48.9263 6.84376 45.4723 4.06989 41.0848C1.52706 37.0627 0.126786 32.4235 0.00821077 27.671C-0.00966677 26.9545 0.588763 26.3875 1.30529 26.4051C2.0214 26.4228 2.58399 27.0178 2.60574 27.7338C2.73427 31.966 3.99209 36.094 6.25769 39.6776C8.75417 43.6263 12.361 46.7349 16.6174 48.606C20.8738 50.4772 25.5866 51.0262 30.1537 50.1827C34.7209 49.3393 38.9352 47.1417 42.2582 43.8708C45.5812 40.5998 47.8621 36.404 48.8096 31.8192C49.7571 27.2344 49.3282 22.4688 47.5776 18.131C45.8269 13.7933 42.8341 10.0804 38.9814 7.46663C35.4914 5.09888 31.4393 3.73039 27.2559 3.49373C26.5343 3.45291 25.9479 2.87086 25.9479 2.14812Z" fill="#7D8997"/>
<path d="M24.2799 26.268C25.1206 26.7707 25.5409 27.503 25.5409 28.465C25.5409 29.3057 25.2463 29.9687 24.6569 30.454C24.0763 30.9393 23.2833 31.182 22.2779 31.182C21.2639 31.182 20.4666 30.9393 19.8859 30.454C19.3053 29.9687 19.0149 29.3057 19.0149 28.465C19.0149 27.503 19.4309 26.7707 20.2629 26.268C19.6303 25.8087 19.3139 25.1803 19.3139 24.383C19.3139 23.5423 19.5956 22.888 20.1589 22.42C20.7309 21.952 21.4373 21.718 22.2779 21.718C23.1186 21.718 23.8206 21.952 24.3839 22.42C24.9473 22.888 25.2289 23.5423 25.2289 24.383C25.2289 25.189 24.9126 25.8173 24.2799 26.268ZM23.1229 23.694C22.9063 23.5033 22.6246 23.408 22.2779 23.408C21.9313 23.408 21.6496 23.5033 21.4329 23.694C21.2163 23.8847 21.1079 24.1447 21.1079 24.474C21.1079 24.8033 21.2163 25.0677 21.4329 25.267C21.6496 25.4577 21.9313 25.553 22.2779 25.553C22.6246 25.553 22.9063 25.4577 23.1229 25.267C23.3396 25.0677 23.4479 24.8033 23.4479 24.474C23.4479 24.1447 23.3396 23.8847 23.1229 23.694ZM21.1989 29.167C21.4763 29.3837 21.8359 29.492 22.2779 29.492C22.7199 29.492 23.0753 29.3837 23.3439 29.167C23.6213 28.9417 23.7599 28.6297 23.7599 28.231C23.7599 27.841 23.6213 27.5377 23.3439 27.321C23.0753 27.0957 22.7199 26.983 22.2779 26.983C21.8359 26.983 21.4763 27.0957 21.1989 27.321C20.9303 27.5377 20.7959 27.841 20.7959 28.231C20.7959 28.6297 20.9303 28.9417 21.1989 29.167ZM29.5511 25.215C30.4265 25.215 31.1631 25.4793 31.7611 26.008C32.3591 26.528 32.6581 27.256 32.6581 28.192C32.6581 29.128 32.3418 29.8603 31.7091 30.389C31.0851 30.9177 30.3181 31.182 29.4081 31.182C28.6715 31.182 28.0215 31.0173 27.4581 30.688C26.8948 30.3587 26.4875 29.8733 26.2361 29.232L27.7701 28.335C27.9955 29.063 28.5415 29.427 29.4081 29.427C29.8675 29.427 30.2228 29.3187 30.4741 29.102C30.7341 28.8767 30.8641 28.5733 30.8641 28.192C30.8641 27.8193 30.7385 27.5203 30.4871 27.295C30.2358 27.0697 29.8935 26.957 29.4601 26.957H26.7041L27.0681 21.9H32.2291V23.577H28.7321L28.6151 25.215H29.5511ZM34.9502 27.292C34.5602 27.292 34.2332 27.163 33.9692 26.905C33.7052 26.641 33.5732 26.32 33.5732 25.942C33.5732 25.564 33.7052 25.246 33.9692 24.988C34.2332 24.724 34.5602 24.592 34.9502 24.592C35.3402 24.592 35.6672 24.724 35.9312 24.988C36.1952 25.246 36.3272 25.564 36.3272 25.942C36.3272 26.32 36.1982 26.641 35.9402 26.905C35.6822 27.163 35.3522 27.292 34.9502 27.292ZM34.3742 26.518C34.5242 26.674 34.7162 26.752 34.9502 26.752C35.1842 26.752 35.3762 26.674 35.5262 26.518C35.6762 26.362 35.7512 26.17 35.7512 25.942C35.7512 25.714 35.6762 25.522 35.5262 25.366C35.3762 25.21 35.1842 25.132 34.9502 25.132C34.7162 25.132 34.5242 25.21 34.3742 25.366C34.2242 25.522 34.1492 25.714 34.1492 25.942C34.1492 26.17 34.2242 26.362 34.3742 26.518ZM33.8882 30.145L38.1092 25.402L38.4962 25.618L34.2662 30.361L33.8882 30.145ZM38.4782 30.721C38.2142 30.979 37.8872 31.108 37.4972 31.108C37.1072 31.108 36.7802 30.979 36.5162 30.721C36.2522 30.457 36.1202 30.136 36.1202 29.758C36.1202 29.38 36.2522 29.062 36.5162 28.804C36.7802 28.54 37.1072 28.408 37.4972 28.408C37.8872 28.408 38.2142 28.54 38.4782 28.804C38.7422 29.062 38.8742 29.38 38.8742 29.758C38.8742 30.136 38.7422 30.457 38.4782 30.721ZM36.9212 30.334C37.0712 30.49 37.2632 30.568 37.4972 30.568C37.7312 30.568 37.9232 30.49 38.0732 30.334C38.2232 30.178 38.2982 29.986 38.2982 29.758C38.2982 29.53 38.2232 29.338 38.0732 29.182C37.9232 29.026 37.7312 28.948 37.4972 28.948C37.2632 28.948 37.0712 29.026 36.9212 29.182C36.7712 29.338 36.6962 29.53 36.6962 29.758C36.6962 29.986 36.7712 30.178 36.9212 30.334Z" fill="#7D8997"/>
</svg>
