<svg width="342" height="193" viewBox="0 0 342 193" fill="none" xmlns="http://www.w3.org/2000/svg">
<path d="M238.279 33.4266C238.619 33.5733 238.889 33.7966 239.089 34.0966C239.296 34.39 239.399 34.7266 239.399 35.1066C239.399 35.6466 239.209 36.1066 238.829 36.4866C238.449 36.8666 237.989 37.0566 237.449 37.0566H234.399V30.0566H237.219C237.739 30.0566 238.182 30.2433 238.549 30.6166C238.916 30.9833 239.099 31.4233 239.099 31.9366C239.099 32.59 238.826 33.0866 238.279 33.4266ZM237.219 30.7166H235.099V33.1566H237.219C237.546 33.1566 237.822 33.04 238.049 32.8066C238.282 32.5666 238.399 32.2766 238.399 31.9366C238.399 31.6033 238.282 31.3166 238.049 31.0766C237.822 30.8366 237.546 30.7166 237.219 30.7166ZM237.449 36.3966C237.796 36.3966 238.089 36.2733 238.329 36.0266C238.576 35.7733 238.699 35.4666 238.699 35.1066C238.699 34.7533 238.576 34.45 238.329 34.1966C238.089 33.9433 237.796 33.8166 237.449 33.8166H235.099V36.3966H237.449ZM247.4 32.0566V37.0566H246.74V32.6966H243.86V37.0566H243.2V32.0566H247.4ZM252.496 32.0566H253.196L251.056 37.5166C250.863 38.01 250.586 38.3966 250.226 38.6766C249.873 38.9633 249.476 39.09 249.036 39.0566V38.4366C249.636 38.5033 250.093 38.1566 250.406 37.3966L250.536 37.0866L248.296 32.0566H248.996L250.876 36.2466L252.496 32.0566ZM257.694 32.0566V32.6966H255.924V37.0566H255.264V32.6966H253.494V32.0566H257.694ZM262.238 32.0566H262.798V37.0566H262.138V33.2066L259.158 37.0566H258.598V32.0566H259.258V35.9066L262.238 32.0566ZM270.934 37.0566H270.054L267.554 34.6466V37.0566H266.894V32.0566H267.554V34.2666L269.934 32.0566H270.834L268.254 34.4566L270.934 37.0566ZM278.575 37.0566H277.695L275.195 34.6466V37.0566H274.535V32.0566H275.195V34.2666L277.575 32.0566H278.475L275.895 34.4566L278.575 37.0566ZM283.676 32.0566V37.0566H283.016V32.6966H280.756V34.9266C280.756 35.76 280.596 36.3333 280.276 36.6466C279.963 36.96 279.53 37.0966 278.976 37.0566V36.4366C279.356 36.4766 279.636 36.3866 279.816 36.1666C280.003 35.9466 280.096 35.5333 280.096 34.9266V32.0566H283.676ZM288.814 32.0566H289.374V37.0566H288.714V33.2066L285.734 37.0566H285.174V32.0566H285.834V35.9066L288.814 32.0566ZM293.18 31.9366C293.92 31.9366 294.517 32.2 294.97 32.7266C295.43 33.2466 295.66 33.8633 295.66 34.5766C295.66 34.65 295.653 34.7533 295.64 34.8866H291.25C291.317 35.3933 291.53 35.7966 291.89 36.0966C292.257 36.39 292.707 36.5366 293.24 36.5366C293.62 36.5366 293.947 36.46 294.22 36.3066C294.5 36.1466 294.71 35.94 294.85 35.6866L295.43 36.0266C295.21 36.38 294.91 36.66 294.53 36.8666C294.15 37.0733 293.717 37.1766 293.23 37.1766C292.443 37.1766 291.803 36.93 291.31 36.4366C290.817 35.9433 290.57 35.3166 290.57 34.5566C290.57 33.81 290.813 33.1866 291.3 32.6866C291.787 32.1866 292.413 31.9366 293.18 31.9366ZM293.18 32.5766C292.66 32.5766 292.223 32.7333 291.87 33.0466C291.523 33.3533 291.317 33.7533 291.25 34.2466H294.98C294.913 33.72 294.71 33.31 294.37 33.0166C294.03 32.7233 293.633 32.5766 293.18 32.5766ZM300.35 32.0566H301.01V37.0566H300.35V34.8766H297.47V37.0566H296.81V32.0566H297.47V34.2366H300.35V32.0566ZM306.106 32.0566V32.6966H304.336V37.0566H303.676V32.6966H301.906V32.0566H306.106ZM310.61 32.0566H311.31L309.17 37.5166C308.977 38.01 308.7 38.3966 308.34 38.6766C307.987 38.9633 307.59 39.09 307.15 39.0566V38.4366C307.75 38.5033 308.207 38.1566 308.52 37.3966L308.65 37.0866L306.41 32.0566H307.11L308.99 36.2466L310.61 32.0566Z" fill="#192A3E"/>
<path d="M222.97 34.5737C222.97 36.4797 221.415 38.0342 219.485 38.0342C217.555 38.0342 216 36.4797 216 34.5737C216 32.6678 217.555 31.1133 219.485 31.1133C221.415 31.1133 222.97 32.6678 222.97 34.5737Z" stroke="#48D2A0" stroke-width="2"/>
<path d="M238.279 58.4266C238.619 58.5733 238.889 58.7966 239.089 59.0966C239.296 59.39 239.399 59.7266 239.399 60.1066C239.399 60.6466 239.209 61.1066 238.829 61.4866C238.449 61.8666 237.989 62.0566 237.449 62.0566H234.399V55.0566H237.219C237.739 55.0566 238.182 55.2433 238.549 55.6166C238.916 55.9833 239.099 56.4233 239.099 56.9366C239.099 57.59 238.826 58.0866 238.279 58.4266ZM237.219 55.7166H235.099V58.1566H237.219C237.546 58.1566 237.822 58.04 238.049 57.8066C238.282 57.5666 238.399 57.2766 238.399 56.9366C238.399 56.6033 238.282 56.3166 238.049 56.0766C237.822 55.8366 237.546 55.7166 237.219 55.7166ZM237.449 61.3966C237.796 61.3966 238.089 61.2733 238.329 61.0266C238.576 60.7733 238.699 60.4666 238.699 60.1066C238.699 59.7533 238.576 59.45 238.329 59.1966C238.089 58.9433 237.796 58.8166 237.449 58.8166H235.099V61.3966H237.449ZM244.79 61.4266C244.284 61.9266 243.664 62.1766 242.93 62.1766C242.197 62.1766 241.574 61.9266 241.06 61.4266C240.554 60.92 240.3 60.2966 240.3 59.5566C240.3 58.8166 240.554 58.1966 241.06 57.6966C241.574 57.19 242.197 56.9366 242.93 56.9366C243.664 56.9366 244.284 57.19 244.79 57.6966C245.304 58.1966 245.56 58.8166 245.56 59.5566C245.56 60.2966 245.304 60.92 244.79 61.4266ZM241.53 60.9666C241.91 61.3466 242.377 61.5366 242.93 61.5366C243.484 61.5366 243.95 61.3466 244.33 60.9666C244.71 60.58 244.9 60.11 244.9 59.5566C244.9 59.0033 244.71 58.5366 244.33 58.1566C243.95 57.77 243.484 57.5766 242.93 57.5766C242.377 57.5766 241.91 57.77 241.53 58.1566C241.15 58.5366 240.96 59.0033 240.96 59.5566C240.96 60.11 241.15 60.58 241.53 60.9666ZM249.149 59.4866C249.729 59.7066 250.019 60.1066 250.019 60.6866C250.019 61.1 249.856 61.4533 249.529 61.7466C249.209 62.0333 248.749 62.1766 248.149 62.1766C247.143 62.1766 246.483 61.7766 246.169 60.9766L246.729 60.6466C246.936 61.24 247.409 61.5366 248.149 61.5366C248.536 61.5366 248.833 61.4533 249.039 61.2866C249.253 61.12 249.359 60.9066 249.359 60.6466C249.359 60.4133 249.273 60.2233 249.099 60.0766C248.926 59.93 248.693 59.8566 248.399 59.8566H247.669V59.2166H248.199C248.486 59.2166 248.709 59.1466 248.869 59.0066C249.036 58.86 249.119 58.66 249.119 58.4066C249.119 58.1666 249.023 57.97 248.829 57.8166C248.636 57.6566 248.376 57.5766 248.049 57.5766C247.423 57.5766 247.006 57.8266 246.799 58.3266L246.249 58.0066C246.583 57.2933 247.183 56.9366 248.049 56.9366C248.576 56.9366 248.996 57.0766 249.309 57.3566C249.623 57.63 249.779 57.9666 249.779 58.3666C249.779 58.88 249.569 59.2533 249.149 59.4866ZM254.302 59.4866C254.849 59.6866 255.122 60.0766 255.122 60.6566C255.122 61.0633 254.986 61.4 254.712 61.6666C254.446 61.9266 254.059 62.0566 253.552 62.0566H251.122V57.0566H253.352C253.839 57.0566 254.216 57.1833 254.482 57.4366C254.749 57.6833 254.882 58.0033 254.882 58.3966C254.882 58.8966 254.689 59.26 254.302 59.4866ZM253.352 57.6966H251.782V59.2166H253.352C253.932 59.2166 254.222 58.9566 254.222 58.4366C254.222 58.2033 254.146 58.0233 253.992 57.8966C253.846 57.7633 253.632 57.6966 253.352 57.6966ZM253.552 61.4166C253.846 61.4166 254.069 61.3466 254.222 61.2066C254.382 61.0666 254.462 60.87 254.462 60.6166C254.462 60.3833 254.382 60.2 254.222 60.0666C254.069 59.9266 253.846 59.8566 253.552 59.8566H251.782V61.4166H253.552ZM258.902 56.9366C259.616 56.9366 260.222 57.19 260.722 57.6966C261.229 58.2033 261.482 58.8233 261.482 59.5566C261.482 60.29 261.229 60.91 260.722 61.4166C260.222 61.9233 259.616 62.1766 258.902 62.1766C258.016 62.1766 257.342 61.81 256.882 61.0766V64.0566H256.222V57.0566H256.882V58.0366C257.342 57.3033 258.016 56.9366 258.902 56.9366ZM257.452 60.9666C257.832 61.3466 258.299 61.5366 258.852 61.5366C259.406 61.5366 259.872 61.3466 260.252 60.9666C260.632 60.58 260.822 60.11 260.822 59.5566C260.822 59.0033 260.632 58.5366 260.252 58.1566C259.872 57.77 259.406 57.5766 258.852 57.5766C258.299 57.5766 257.832 57.77 257.452 58.1566C257.072 58.5366 256.882 59.0033 256.882 59.5566C256.882 60.11 257.072 60.58 257.452 60.9666ZM266.98 57.0566H267.64V62.0566H266.98V61.0766C266.52 61.81 265.847 62.1766 264.96 62.1766C264.247 62.1766 263.637 61.9233 263.13 61.4166C262.63 60.91 262.38 60.29 262.38 59.5566C262.38 58.8233 262.63 58.2033 263.13 57.6966C263.637 57.19 264.247 56.9366 264.96 56.9366C265.847 56.9366 266.52 57.3033 266.98 58.0366V57.0566ZM263.61 60.9666C263.99 61.3466 264.457 61.5366 265.01 61.5366C265.563 61.5366 266.03 61.3466 266.41 60.9666C266.79 60.58 266.98 60.11 266.98 59.5566C266.98 59.0033 266.79 58.5366 266.41 58.1566C266.03 57.77 265.563 57.5766 265.01 57.5766C264.457 57.5766 263.99 57.77 263.61 58.1566C263.23 58.5366 263.04 59.0033 263.04 59.5566C263.04 60.11 263.23 60.58 263.61 60.9666ZM272.737 57.0566V57.6966H270.967V62.0566H270.307V57.6966H268.537V57.0566H272.737Z" fill="#192A3E"/>
<path d="M222.97 59.5737C222.97 61.4797 221.415 63.0342 219.485 63.0342C217.555 63.0342 216 61.4797 216 59.5737C216 57.6678 217.555 56.1133 219.485 56.1133C221.415 56.1133 222.97 57.6678 222.97 59.5737Z" stroke="#F79D0F" stroke-width="2"/>
<path d="M240.085 86.07C239.385 86.77 238.529 87.12 237.515 87.12C236.502 87.12 235.645 86.77 234.945 86.07C234.245 85.3633 233.895 84.5067 233.895 83.5C233.895 82.4933 234.245 81.64 234.945 80.94C235.645 80.2333 236.502 79.88 237.515 79.88C238.529 79.88 239.385 80.2333 240.085 80.94C240.785 81.64 241.135 82.4933 241.135 83.5C241.135 84.5067 240.785 85.3633 240.085 86.07ZM235.435 85.59C235.995 86.1567 236.689 86.44 237.515 86.44C238.342 86.44 239.035 86.1567 239.595 85.59C240.155 85.0167 240.435 84.32 240.435 83.5C240.435 82.68 240.155 81.9867 239.595 81.42C239.035 80.8467 238.342 80.56 237.515 80.56C236.689 80.56 235.995 80.8467 235.435 81.42C234.875 81.9867 234.595 82.68 234.595 83.5C234.595 84.32 234.875 85.0167 235.435 85.59ZM247.977 87H247.177L245.137 84.59V87H244.477V84.59L242.437 87H241.637L243.877 84.4L241.737 82H242.537L244.477 84.22V82H245.137V84.22L247.077 82H247.877L245.737 84.4L247.977 87ZM252.616 82H253.176V87H252.516V83.15L249.536 87H248.976V82H249.636V85.85L252.616 82ZM258.871 86.36H259.571V88.34H258.911V87H254.831V88.34H254.171V86.36H254.781C255.121 85.9133 255.291 85.2833 255.291 84.47V82H258.871V86.36ZM255.581 86.36H258.211V82.64H255.951V84.47C255.951 85.2367 255.828 85.8667 255.581 86.36ZM264.774 82H265.434V87H264.774V86.02C264.314 86.7533 263.641 87.12 262.754 87.12C262.041 87.12 261.431 86.8667 260.924 86.36C260.424 85.8533 260.174 85.2333 260.174 84.5C260.174 83.7667 260.424 83.1467 260.924 82.64C261.431 82.1333 262.041 81.88 262.754 81.88C263.641 81.88 264.314 82.2467 264.774 82.98V82ZM261.404 85.91C261.784 86.29 262.251 86.48 262.804 86.48C263.358 86.48 263.824 86.29 264.204 85.91C264.584 85.5233 264.774 85.0533 264.774 84.5C264.774 83.9467 264.584 83.48 264.204 83.1C263.824 82.7133 263.358 82.52 262.804 82.52C262.251 82.52 261.784 82.7133 261.404 83.1C261.024 83.48 260.834 83.9467 260.834 84.5C260.834 85.0533 261.024 85.5233 261.404 85.91ZM269.242 81.88C269.982 81.88 270.578 82.1433 271.032 82.67C271.492 83.19 271.722 83.8067 271.722 84.52C271.722 84.5933 271.715 84.6967 271.702 84.83H267.312C267.378 85.3367 267.592 85.74 267.952 86.04C268.318 86.3333 268.768 86.48 269.302 86.48C269.682 86.48 270.008 86.4033 270.282 86.25C270.562 86.09 270.772 85.8833 270.912 85.63L271.492 85.97C271.272 86.3233 270.972 86.6033 270.592 86.81C270.212 87.0167 269.778 87.12 269.292 87.12C268.505 87.12 267.865 86.8733 267.372 86.38C266.878 85.8867 266.632 85.26 266.632 84.5C266.632 83.7533 266.875 83.13 267.362 82.63C267.848 82.13 268.475 81.88 269.242 81.88ZM269.242 82.52C268.722 82.52 268.285 82.6767 267.932 82.99C267.585 83.2967 267.378 83.6967 267.312 84.19H271.042C270.975 83.6633 270.772 83.2533 270.432 82.96C270.092 82.6667 269.695 82.52 269.242 82.52ZM276.276 82V82.64H274.506V87H273.846V82.64H272.076V82H276.276ZM283.971 86.37C283.464 86.87 282.844 87.12 282.111 87.12C281.377 87.12 280.754 86.87 280.241 86.37C279.734 85.8633 279.481 85.24 279.481 84.5C279.481 83.76 279.734 83.14 280.241 82.64C280.754 82.1333 281.377 81.88 282.111 81.88C282.844 81.88 283.464 82.1333 283.971 82.64C284.484 83.14 284.741 83.76 284.741 84.5C284.741 85.24 284.484 85.8633 283.971 86.37ZM280.711 85.91C281.091 86.29 281.557 86.48 282.111 86.48C282.664 86.48 283.131 86.29 283.511 85.91C283.891 85.5233 284.081 85.0533 284.081 84.5C284.081 83.9467 283.891 83.48 283.511 83.1C283.131 82.7133 282.664 82.52 282.111 82.52C281.557 82.52 281.091 82.7133 280.711 83.1C280.331 83.48 280.141 83.9467 280.141 84.5C280.141 85.0533 280.331 85.5233 280.711 85.91ZM290.145 82V87H289.485V82.64H286.605V87H285.945V82H290.145ZM295.741 82V87H295.081V82.64H292.821V84.87C292.821 85.7033 292.661 86.2767 292.341 86.59C292.027 86.9033 291.594 87.04 291.041 87V86.38C291.421 86.42 291.701 86.33 291.881 86.11C292.067 85.89 292.161 85.4767 292.161 84.87V82H295.741ZM301.539 82H302.199V87H301.539V86.02C301.079 86.7533 300.405 87.12 299.519 87.12C298.805 87.12 298.195 86.8667 297.689 86.36C297.189 85.8533 296.939 85.2333 296.939 84.5C296.939 83.7667 297.189 83.1467 297.689 82.64C298.195 82.1333 298.805 81.88 299.519 81.88C300.405 81.88 301.079 82.2467 301.539 82.98V82ZM298.169 85.91C298.549 86.29 299.015 86.48 299.569 86.48C300.122 86.48 300.589 86.29 300.969 85.91C301.349 85.5233 301.539 85.0533 301.539 84.5C301.539 83.9467 301.349 83.48 300.969 83.1C300.589 82.7133 300.122 82.52 299.569 82.52C299.015 82.52 298.549 82.7133 298.169 83.1C297.789 83.48 297.599 83.9467 297.599 84.5C297.599 85.0533 297.789 85.5233 298.169 85.91ZM307.296 82V82.64H305.526V87H304.866V82.64H303.096V82H307.296ZM310.231 83.9C310.697 83.9 311.091 84.0467 311.411 84.34C311.737 84.6267 311.901 84.9967 311.901 85.45C311.901 85.9033 311.737 86.2767 311.411 86.57C311.091 86.8567 310.697 87 310.231 87H308.201V82H308.861V83.9H310.231ZM312.601 82H313.261V87H312.601V82ZM310.231 86.36C310.511 86.36 310.747 86.2767 310.941 86.11C311.141 85.9433 311.241 85.7233 311.241 85.45C311.241 85.1767 311.141 84.9567 310.941 84.79C310.747 84.6233 310.511 84.54 310.231 84.54H308.861V86.36H310.231Z" fill="#192A3E"/>
<path d="M222.92 84.3374C222.92 86.1544 221.398 87.6747 219.46 87.6747C217.523 87.6747 216 86.1544 216 84.3374C216 82.5203 217.523 81 219.46 81C221.398 81 222.92 82.5203 222.92 84.3374Z" stroke="#F96E7D" stroke-width="2"/>
<path d="M62.4421 75.5H86.4771V80.065L72.4521 114H67.1171L81.0321 80.34H62.4421V75.5ZM101.6 90.515C105.23 90.515 108.292 91.5967 110.785 93.76C113.315 95.8867 114.58 98.8383 114.58 102.615C114.58 106.355 113.297 109.307 110.73 111.47C108.163 113.633 105.047 114.715 101.38 114.715C98.4467 114.715 95.825 114.018 93.515 112.625C91.205 111.195 89.5917 109.142 88.675 106.465L93.02 103.99C93.5333 105.86 94.5233 107.29 95.99 108.28C97.4567 109.233 99.2533 109.71 101.38 109.71C103.8 109.71 105.762 109.087 107.265 107.84C108.768 106.593 109.52 104.852 109.52 102.615C109.52 100.378 108.768 98.6367 107.265 97.39C105.762 96.1067 103.837 95.465 101.49 95.465H90.6L92.03 75.5H113.095V80.285H96.65L95.99 90.515H101.6ZM119.331 102.478C119.331 103.75 119.47 104.705 119.747 105.341C120.024 105.978 120.473 106.296 121.094 106.296C122.322 106.296 122.936 105.023 122.936 102.478C122.936 99.9469 122.322 98.6816 121.094 98.6816C120.473 98.6816 120.024 98.9961 119.747 99.625C119.47 100.254 119.331 101.205 119.331 102.478ZM124.475 102.478C124.475 104.185 124.186 105.476 123.61 106.352C123.041 107.221 122.202 107.655 121.094 107.655C120.046 107.655 119.23 107.209 118.646 106.318C118.069 105.427 117.781 104.147 117.781 102.478C117.781 100.778 118.058 99.4977 118.612 98.6367C119.174 97.7757 120.001 97.3452 121.094 97.3452C122.18 97.3452 123.015 97.7907 123.599 98.6816C124.183 99.5726 124.475 100.838 124.475 102.478ZM129.214 109.059C129.214 110.339 129.352 111.297 129.629 111.934C129.906 112.562 130.359 112.877 130.988 112.877C131.617 112.877 132.081 112.566 132.381 111.945C132.68 111.316 132.83 110.354 132.83 109.059C132.83 107.778 132.68 106.831 132.381 106.217C132.081 105.596 131.617 105.285 130.988 105.285C130.359 105.285 129.906 105.596 129.629 106.217C129.352 106.831 129.214 107.778 129.214 109.059ZM134.369 109.059C134.369 110.758 134.08 112.046 133.504 112.922C132.935 113.79 132.096 114.225 130.988 114.225C129.925 114.225 129.105 113.779 128.529 112.888C127.96 111.997 127.675 110.721 127.675 109.059C127.675 107.359 127.952 106.079 128.506 105.218C129.068 104.357 129.895 103.926 130.988 103.926C132.051 103.926 132.879 104.368 133.47 105.251C134.069 106.127 134.369 107.396 134.369 109.059ZM131.471 97.5811L122.363 114H120.712L129.82 97.5811H131.471Z" fill="#48D2A0"/>
<path d="M190.985 96.6007C190.985 149.573 148.375 192.516 95.812 192.516C43.2492 192.516 0.638626 149.573 0.638626 96.6007C0.638626 43.6279 43.2492 0.685059 95.812 0.685059C148.375 0.685059 190.985 43.6279 190.985 96.6007ZM24.432 96.6007C24.432 136.33 56.3899 168.537 95.812 168.537C135.234 168.537 167.192 136.33 167.192 96.6007C167.192 56.8711 135.234 24.664 95.812 24.664C56.3899 24.664 24.432 56.8711 24.432 96.6007Z" fill="#F79E0F"/>
<path d="M95.812 0.685059C120.204 0.685059 143.665 10.1235 161.352 27.052C179.039 43.9805 189.602 67.1067 190.859 91.6565C192.116 116.206 183.973 140.306 168.109 158.979C152.246 177.653 129.873 189.476 105.611 192.007C81.3482 194.538 57.0474 187.584 37.7251 172.58C18.4028 157.577 5.53402 135.669 1.77534 111.381C-1.98333 87.0917 3.65504 62.2756 17.5265 42.0551C31.398 21.8346 52.4435 7.75345 76.3187 2.71849L81.192 26.189C63.2857 29.9653 47.5015 40.5261 37.0979 55.6915C26.6943 70.8568 22.4655 89.4689 25.2845 107.686C28.1035 125.902 37.7551 142.333 52.2468 153.585C66.7386 164.838 84.9641 170.053 103.161 168.155C121.358 166.257 138.137 157.39 150.035 143.385C161.932 129.379 168.04 111.305 167.097 92.8926C166.154 74.4802 158.232 57.1356 144.967 44.4392C131.702 31.7428 114.106 24.664 95.812 24.664V0.685059Z" fill="#F79E0F"/>
<path d="M95.812 0.685059C118.397 0.685059 140.246 8.77924 157.453 23.5209C174.661 38.2626 186.106 58.691 189.743 81.1549C193.38 103.619 188.972 126.654 177.306 146.144C165.641 165.633 147.478 180.307 126.065 187.542C104.651 194.777 81.3824 194.101 60.4175 185.637C39.4526 177.172 22.1578 161.47 11.6242 141.336C1.0906 121.202 -1.99523 97.9494 2.91824 75.7336C7.83172 53.5178 20.4242 33.787 38.4452 20.0676L52.7869 39.2008C39.2712 49.4904 29.8268 64.2886 26.1417 80.9504C22.4566 97.6122 24.771 115.052 32.6712 130.152C40.5713 145.252 53.5425 157.029 69.2661 163.378C84.9898 169.726 102.441 170.233 118.501 164.806C134.561 159.38 148.184 148.375 156.933 133.758C165.682 119.141 168.988 101.864 166.26 85.0163C163.533 68.1684 154.949 52.8471 142.043 41.7909C129.137 30.7346 112.751 24.664 95.812 24.664V0.685059Z" fill="#F79E0F"/>
<path d="M95.812 0.685059C115.93 0.685059 135.531 7.10984 151.799 19.0369C168.068 30.9639 180.168 47.7797 186.362 67.0697C192.556 86.3597 192.526 107.132 186.275 126.403C180.024 145.674 167.874 162.454 151.57 174.332C135.266 186.21 115.647 192.576 95.5288 192.516C75.4109 192.456 55.8294 185.972 39.5959 173.996C23.3624 162.02 11.312 145.168 5.17499 125.86C-0.962042 106.551 -0.870028 85.7796 5.43782 66.5271L28.0314 74.0455C23.3005 88.4849 23.2315 104.064 27.8342 118.545C32.437 133.026 41.4748 145.665 53.6499 154.647C65.825 163.629 80.5112 168.492 95.5996 168.537C110.688 168.582 125.403 163.808 137.631 154.899C149.859 145.991 158.971 133.406 163.659 118.952C168.347 104.499 168.37 88.92 163.725 74.4525C159.079 59.985 150.004 47.3731 137.803 38.4278C125.601 29.4825 110.901 24.664 95.812 24.664V0.685059Z" fill="#F96E7D"/>
<path d="M95.812 0.685059C111.205 0.685059 126.368 4.44779 140.001 11.6506C153.635 18.8533 165.331 29.2812 174.087 42.0398C182.843 54.7984 188.398 69.5071 190.275 84.9043C192.152 100.302 190.296 115.928 184.864 130.443C179.433 144.958 170.59 157.93 159.092 168.244C147.594 178.558 133.786 185.908 118.851 189.664C103.915 193.419 88.2992 193.467 73.3414 189.805C58.3837 186.142 44.5306 178.878 32.9702 168.635L48.6807 150.626C57.3509 158.308 67.7407 163.757 78.9591 166.504C90.1774 169.251 101.89 169.214 113.091 166.398C124.292 163.582 134.649 158.069 143.272 150.333C151.895 142.597 158.528 132.869 162.601 121.983C166.675 111.096 168.067 99.3763 166.659 87.8284C165.252 76.2805 161.085 65.249 154.518 55.68C147.951 46.111 139.179 38.2902 128.954 32.8881C118.729 27.486 107.357 24.664 95.812 24.664V0.685059Z" fill="#48D2A0"/>
</svg>
